<svg xmlns="http://www.w3.org/2000/svg" width="256" height="258.076" viewBox="0 0 256 258.076">
  <g id="openlayers" transform="translate(0 -0.648)">
    <path id="Path_89" data-name="Path 89" d="M94.029,57.213c18.682-15.559,49.26-15.562,67.945,0l80.016,66.632c18.68,15.561,18.683,41.015,0,56.577l-80.013,66.63c-18.69,15.564-49.266,15.56-67.945,0l-80.016-66.63c-18.683-15.56-18.683-41.016,0-56.577L94.029,57.213Z" fill="#015965"/>
    <path id="Path_90" data-name="Path 90" d="M94.029,35.561c18.682-15.559,49.26-15.562,67.945,0l80.016,66.633c18.68,15.562,18.683,41.017,0,56.578L161.974,225.4c-18.69,15.564-49.266,15.56-67.945,0l-80.016-66.63c-18.683-15.56-18.683-41.016,0-56.578L94.029,35.56Z" fill="#e5e5e5"/>
    <path id="Path_91" data-name="Path 91" d="M161.974,12.319,241.99,78.95c18.68,15.562,18.683,41.017,0,56.578l-80.013,66.63c-18.69,15.565-49.266,15.56-67.945,0l-80.016-66.63C-4.67,119.97-4.67,94.513,14.01,78.951L94.029,12.319c18.682-15.56,49.26-15.563,67.945,0Z" fill="#3a79fc"/>
    <path id="Path_92" data-name="Path 92" d="M244.31,81.1q-1.112-1.08-2.3-2.077L161.99,12.33c-18.688-15.577-49.267-15.574-67.952,0L14.011,79.023c-18.681,15.58-18.681,41.058,0,56.634l8.612,7.176C45.142,115.79,121.074,40.853,244.31,81.1Z" fill="#fff" opacity="0.15"/>
  </g>
</svg>
